<svg xmlns="http://www.w3.org/2000/svg" width="18" height="19" viewBox="0 0 18 19" fill="none">
  <g clip-path="url(#clip0_1173_2245)">
    <path d="M1.16657 18.5016C0.868044 18.5016 0.5693 18.3873 0.342093 18.1599C-0.114031 17.704 -0.114031 16.9669 0.342093 16.511L16.009 0.843886C16.4649 0.387976 17.202 0.387976 17.6579 0.843886C18.114 1.2998 18.114 2.03694 17.6579 2.49285L1.99106 18.1599C1.76235 18.3884 1.4651 18.5016 1.16657 18.5016Z" fill="#FF594D"/>
    <path d="M16.8334 18.5016C16.5349 18.5016 16.2364 18.3873 16.009 18.1599L0.342093 2.49285C-0.114031 2.03694 -0.114031 1.2998 0.342093 0.843886C0.798003 0.387976 1.53493 0.387976 1.99106 0.843886L17.6579 16.511C18.114 16.9669 18.114 17.704 17.6579 18.1599C17.4305 18.3884 17.132 18.5016 16.8334 18.5016Z" fill="#FF594D"/>
  </g>
  <defs>
    <clipPath id="clip0_1173_2245">
      <rect width="18" height="18" fill="white" transform="translate(0 0.487305)"/>
    </clipPath>
  </defs>
</svg>