<svg xmlns="http://www.w3.org/2000/svg" width="27" height="26" viewBox="0 0 27 26" fill="none">
  <g clip-path="url(#clip0_1173_2325)">
    <path d="M13.0493 21.5023C13.0493 23.6211 11.3409 25.3356 9.24289 25.3356C7.14486 25.3356 5.43652 23.6211 5.43652 21.5023C5.43652 19.3835 7.14486 17.6689 9.24289 17.6689H13.0493V21.5023Z" fill="#0ACF83" stroke="black"/>
    <path d="M5.43652 12.8363C5.43652 10.7175 7.14486 9.00293 9.24289 9.00293H13.0493V16.6696H9.24289C7.14486 16.6696 5.43652 14.9551 5.43652 12.8363Z" fill="#A259FF" stroke="black"/>
    <path d="M5.43652 4.16927C5.43652 2.05047 7.14486 0.335938 9.24289 0.335938H13.0493V8.0026H9.24289C7.14486 8.0026 5.43652 6.28807 5.43652 4.16927Z" fill="#F24E1E" stroke="black"/>
    <path d="M14.0488 0.335938H17.8552C19.9532 0.335938 21.6616 2.05047 21.6616 4.16927C21.6616 6.28807 19.9532 8.0026 17.8552 8.0026H14.0488V0.335938Z" fill="#FF7262" stroke="black"/>
    <path d="M21.6616 12.8363C21.6616 14.9551 19.9532 16.6696 17.8552 16.6696C15.7572 16.6696 14.0488 14.9551 14.0488 12.8363C14.0488 10.7175 15.7572 9.00293 17.8552 9.00293C19.9532 9.00293 21.6616 10.7175 21.6616 12.8363Z" fill="#1ABCFE" stroke="black"/>
  </g>
  <defs>
    <clipPath id="clip0_1173_2325">
      <rect width="26.9873" height="26" fill="white"/>
    </clipPath>
  </defs>
</svg>