<svg xmlns="http://www.w3.org/2000/svg" width="46" height="45" viewBox="0 0 46 45" fill="none">
  <g clip-path="url(#clip0_1173_1775)">
    <path d="M22.9993 0.468262C10.5749 0.468262 0.5 10.5809 0.5 23.059C0.5 33.0381 6.94589 41.5054 15.89 44.4921C17.0143 44.7004 17.4244 44.0029 17.4244 43.4033C17.4244 42.8677 17.4048 41.4473 17.3939 39.5616C11.1338 40.9283 9.81355 36.5336 9.81355 36.5336C8.79161 33.9236 7.31677 33.2304 7.31677 33.2304C5.2729 31.8282 7.47065 31.855 7.47065 31.855C9.7279 32.014 10.916 34.1842 10.916 34.1842C12.9251 37.6361 16.184 36.6381 17.4657 36.0596C17.6682 34.6008 18.251 33.6042 18.8934 33.0403C13.8984 32.4691 8.64645 30.5326 8.64645 21.8774C8.64645 19.4118 9.5225 17.3948 10.9618 15.814C10.7288 15.2428 9.95726 12.9471 11.181 9.8377C11.181 9.8377 13.071 9.23092 17.3685 12.153C19.1634 11.6522 21.0882 11.4018 23.0022 11.3916C24.9118 11.4018 26.8381 11.6515 28.6359 12.153C32.9298 9.23092 34.8169 9.8377 34.8169 9.8377C36.0435 12.9471 35.2719 15.2428 35.0397 15.814C36.4826 17.3948 37.3535 19.4111 37.3535 21.8774C37.3535 30.5544 32.0929 32.4633 27.0805 33.0236C27.8883 33.7211 28.6076 35.0987 28.6076 37.2071C28.6076 40.2279 28.5807 42.6623 28.5807 43.4033C28.5807 44.0087 28.9865 44.712 30.1274 44.4892C39.0599 41.4967 45.5 33.0352 45.5 23.059C45.5 10.5809 35.4251 0.468262 22.9993 0.468262Z" fill="white"/>
    <path d="M22.9993 0.468262C10.5749 0.468262 0.5 10.5809 0.5 23.059C0.5 33.0381 6.94589 41.5054 15.89 44.4921C17.0143 44.7004 17.4244 44.0029 17.4244 43.4033C17.4244 42.8677 17.4048 41.4473 17.3939 39.5616C11.1338 40.9283 9.81355 36.5336 9.81355 36.5336C8.79161 33.9236 7.31677 33.2304 7.31677 33.2304C5.2729 31.8282 7.47065 31.855 7.47065 31.855C9.7279 32.014 10.916 34.1842 10.916 34.1842C12.9251 37.6361 16.184 36.6381 17.4657 36.0596C17.6682 34.6008 18.251 33.6042 18.8934 33.0403C13.8984 32.4691 8.64645 30.5326 8.64645 21.8774C8.64645 19.4118 9.5225 17.3948 10.9618 15.814C10.7288 15.2428 9.95726 12.9471 11.181 9.8377C11.181 9.8377 13.071 9.23092 17.3685 12.153C19.1634 11.6522 21.0882 11.4018 23.0022 11.3916C24.9118 11.4018 26.8381 11.6515 28.6359 12.153C32.9298 9.23092 34.8169 9.8377 34.8169 9.8377C36.0435 12.9471 35.2719 15.2428 35.0397 15.814C36.4826 17.3948 37.3535 19.4111 37.3535 21.8774C37.3535 30.5544 32.0929 32.4633 27.0805 33.0236C27.8883 33.7211 28.6076 35.0987 28.6076 37.2071C28.6076 40.2279 28.5807 42.6623 28.5807 43.4033C28.5807 44.0087 28.9865 44.712 30.1274 44.4892C39.0599 41.4967 45.5 33.0352 45.5 23.059C45.5 10.5809 35.4251 0.468262 22.9993 0.468262Z" fill="white"/>
    <path d="M34.8387 9.90088C36.0297 12.9768 35.2698 15.2472 35.0383 15.814C36.4812 17.3948 37.3522 19.4111 37.3522 21.8774C37.3522 30.5544 32.0915 32.4633 27.0791 33.0236C27.8869 33.7211 28.6062 35.0987 28.6062 37.2072C28.6062 40.228 28.5793 42.6623 28.5793 43.4034C28.5793 44.0087 28.9851 44.712 30.126 44.4892C39.0593 41.4967 45.4993 33.0352 45.4993 23.059C45.4993 20.3772 45.0319 17.8064 44.1777 15.4199C41.0756 12.1538 37.6229 9.97854 34.8387 9.90088Z" fill="white"/>
    <path d="M18.0075 34.233C18.2601 33.7234 18.5686 33.3271 18.893 33.0405C16.1553 32.7269 13.3435 31.996 11.3584 29.979C12.8855 32.5208 15.3721 33.677 18.0075 34.233Z" fill="white"/>
    <path d="M1.67145 24.5817C1.67145 12.1037 11.7464 1.991 24.1707 1.991C31.0695 1.991 37.2403 5.11125 41.3665 10.0191C37.2911 4.24173 30.5861 0.468262 22.9993 0.468262C10.5749 0.468262 0.5 10.5809 0.5 23.059C0.5 28.6223 2.50685 33.7124 5.83032 37.647C3.21669 33.9577 1.67145 29.4533 1.67145 24.5817Z" fill="#D0DFFF"/>
    <path d="M29.7786 38.7306C29.7786 36.6228 29.0594 35.2431 28.2515 34.5456C33.264 33.9867 38.5253 32.0764 38.5253 23.4001C38.5253 20.9338 37.6544 18.9182 36.21 17.3374C36.4437 16.7662 37.2167 14.4698 35.9872 11.3611C35.9872 11.3611 35.7535 11.2893 35.2708 11.3169C35.7977 13.6612 35.2331 15.3378 35.0393 15.8139C36.4822 17.3948 37.3531 19.411 37.3531 21.8773C37.3531 30.5543 32.0925 32.4632 27.0801 33.0235C27.8879 33.721 28.6072 35.0986 28.6072 37.2071C28.6072 40.2279 28.5803 42.6623 28.5803 43.4033C28.5803 43.936 28.8975 44.5435 29.7525 44.529C29.7583 43.5078 29.7786 41.3398 29.7786 38.7306Z" fill="#D0DFFF"/>
    <path d="M11.1572 38.4673C11.6297 39.4399 13.2178 41.7697 17.4071 41.2791C17.4013 40.7666 17.397 40.1925 17.3941 39.5618C14.1621 40.2673 12.2539 39.4355 11.1572 38.4673Z" fill="white"/>
    <path d="M11.965 35.5089C11.8206 35.2911 11.5499 34.9217 11.1572 34.5522C11.412 34.9304 11.6827 35.2476 11.965 35.5089Z" fill="#D0DFFF"/>
  </g>
  <defs>
    <clipPath id="clip0_1173_1775">
      <rect width="45" height="45" fill="white" transform="translate(0.5)"/>
    </clipPath>
  </defs>
</svg>