<svg xmlns="http://www.w3.org/2000/svg" width="49" height="48" viewBox="0 0 49 48" fill="none">
  <path d="M43.0869 2.2002H5.91314C5.06579 2.20267 4.25385 2.54037 3.65468 3.13955C3.05551 3.73872 2.71781 4.55066 2.71533 5.39801V42.5718C2.71781 43.4191 3.05551 44.231 3.65468 44.8302C4.25385 45.4294 5.06579 45.7671 5.91314 45.7696H43.0869C43.9342 45.7671 44.7462 45.4294 45.3454 44.8302C45.9445 44.231 46.2822 43.4191 46.2847 42.5718V5.39801C46.2822 4.55066 45.9445 3.73872 45.3454 3.13955C44.7462 2.54037 43.9342 2.20267 43.0869 2.2002ZM15.8619 39.3252H9.44283V18.5746H15.8619V39.3252ZM12.6528 15.6646C11.901 15.6646 11.166 15.4416 10.5408 15.0239C9.91563 14.6062 9.42838 14.0124 9.14065 13.3178C8.85292 12.6232 8.77763 11.8588 8.92432 11.1214C9.071 10.3839 9.43306 9.70656 9.96472 9.1749C10.4964 8.64324 11.1738 8.28118 11.9112 8.13449C12.6486 7.98781 13.413 8.06309 14.1076 8.35082C14.8023 8.63855 15.396 9.12581 15.8137 9.75097C16.2314 10.3761 16.4544 11.1111 16.4544 11.863C16.4545 12.3623 16.3563 12.8567 16.1653 13.3179C15.9743 13.7792 15.6942 14.1984 15.3412 14.5514C14.9882 14.9044 14.5691 15.1844 14.1078 15.3754C13.6465 15.5664 13.1521 15.6647 12.6528 15.6646ZM40.1488 39.3299H33.6875V27.9468C33.6875 27.9468 33.8385 25.6649 32.6178 24.478C31.5078 23.4008 29.9647 23.6643 29.9647 23.6643C29.9647 23.6643 28.2481 23.7074 27.3116 25.1643C26.7491 26.0389 26.5841 27.2314 26.5419 28.0424V39.3299H20.1219V18.5746H26.541V21.0739C27.1222 20.248 28.1413 19.1483 29.6216 18.5746C31.8716 17.7046 33.8038 17.8321 35.4641 18.3327C37.5463 18.9599 38.7341 20.7102 39.1644 21.5708C39.7428 22.7258 40.1488 24.2661 40.1488 26.1927V39.3299Z" fill="#4FBEFF"/>
</svg>