<svg xmlns="http://www.w3.org/2000/svg" width="20" height="20" viewBox="0 0 20 20" fill="none">
  <g clip-path="url(#clip0_1173_2293)">
    <path d="M19.6666 10.0002C19.6666 15.5442 15.0033 19.9958 9.38397 19.6478C4.5693 19.3495 0.650636 15.4308 0.352636 10.6162C0.0043025 4.99683 4.45597 0.333496 9.99997 0.333496C11.5226 0.333496 12.9643 0.684829 14.2466 1.31383C14.5903 1.4825 14.7163 1.9105 14.5266 2.24316L14.5253 2.2455C14.35 2.55283 13.9673 2.66716 13.65 2.51083C12.3773 1.88416 10.9223 1.57916 9.38663 1.68883C5.3533 1.9765 2.0593 5.2115 1.7003 9.23916C1.25364 14.2522 5.27097 18.4598 10.2213 18.3305C14.4606 18.2198 17.9993 14.8578 18.3096 10.6285C18.3903 9.52983 18.258 8.46616 17.9433 7.4855C17.8436 7.1745 17.9886 6.83883 18.2806 6.69283C18.6453 6.5105 19.0923 6.69283 19.216 7.08116C19.5086 8.0015 19.6666 8.98216 19.6666 10.0002Z" fill="url(#paint0_linear_1173_2293)"/>
    <path d="M5.13678 7.49082L10.4081 14.6232C10.8061 15.1618 11.6161 15.1152 11.9518 14.5345L19.5691 1.34849C19.9658 0.661824 19.0608 -0.0285094 18.5211 0.549491L10.5851 9.05016L5.98045 6.50149C5.35811 6.15716 4.71145 6.91516 5.13678 7.49082Z" fill="url(#paint1_linear_1173_2293)"/>
  </g>
  <defs>
    <linearGradient id="paint0_linear_1173_2293" x1="0.333496" y1="10.0002" x2="19.6666" y2="10.0002" gradientUnits="userSpaceOnUse">
      <stop stop-color="#7AFFD7"/>
      <stop offset="1" stop-color="#00FFB2"/>
    </linearGradient>
    <linearGradient id="paint1_linear_1173_2293" x1="5" y1="7.66676" x2="19.6668" y2="7.66676" gradientUnits="userSpaceOnUse">
      <stop stop-color="#7AFFD7"/>
      <stop offset="1" stop-color="#00FFB2"/>
    </linearGradient>
    <clipPath id="clip0_1173_2293">
      <rect width="20" height="20" fill="white"/>
    </clipPath>
  </defs>
</svg>