<svg xmlns="http://www.w3.org/2000/svg" width="44" height="44" viewBox="0 0 44 44" fill="none">
  <path d="M38.5441 6.33588C38.5441 3.34388 36.0801 0.879883 33.0881 0.879883H19.0081C18.1281 0.879883 17.4241 1.05588 16.8961 1.40788C16.3681 1.58388 15.6641 1.93588 15.3121 2.28788L7.21605 10.2079C6.68805 10.5599 6.33606 11.0879 5.98406 11.7919C5.63206 12.4959 5.45605 13.1999 5.45605 14.0799V37.4879C5.45605 40.4799 7.92005 42.9439 10.9121 42.9439H33.0881C36.0801 42.9439 38.5441 40.4799 38.5441 37.4879V6.33588ZM22.0001 12.6719C24.6401 12.6719 26.7521 14.7839 26.7521 17.4239C26.7521 20.0639 24.6401 22.1759 22.0001 22.1759C19.3601 22.1759 17.2481 20.0639 17.2481 17.4239C17.2481 14.7839 19.3601 12.6719 22.0001 12.6719ZM28.3361 33.4399H16.8961C13.9041 33.4399 12.8481 32.0319 13.5521 30.2719C14.4321 27.9839 16.1921 26.2239 18.3041 25.3439C18.6561 25.1679 19.0081 25.1679 19.3601 25.3439C21.1201 26.0479 23.2321 25.8719 24.8161 25.3439C25.1681 25.1679 25.5201 25.1679 25.8721 25.3439C27.9841 26.3999 29.7441 28.1599 30.6241 30.4479C31.1521 31.8559 29.9201 33.4399 28.3361 33.4399Z" fill="url(#paint0_linear_1173_1748)"/>
  <defs>
    <linearGradient id="paint0_linear_1173_1748" x1="5.45605" y1="21.9119" x2="38.5441" y2="21.9119" gradientUnits="userSpaceOnUse">
      <stop stop-color="#1CFFE4"/>
      <stop offset="1" stop-color="#29BFFF"/>
    </linearGradient>
  </defs>
</svg>