<svg xmlns="http://www.w3.org/2000/svg" width="47" height="47" viewBox="0 0 47 47" fill="none">
  <path d="M23.5177 12.4731C23.1399 12.4724 22.8218 12.6453 22.5897 12.8403C22.3577 13.0353 22.1813 13.2643 22.0145 13.5173C21.681 14.0234 21.3971 14.6351 21.1238 15.2543C20.8507 15.8736 20.5901 16.4993 20.3492 16.9913C20.1086 17.4834 19.8261 17.8385 19.8214 17.8419C19.8158 17.8452 19.3913 18.0037 18.8489 18.0786C18.3064 18.1534 17.629 18.2048 16.9555 18.2708C16.2822 18.3368 15.6155 18.4134 15.0307 18.572C14.7383 18.6513 14.4636 18.7495 14.2059 18.9091C13.9483 19.0686 13.6865 19.3143 13.569 19.6736C13.4516 20.0328 13.5169 20.3879 13.6307 20.669C13.7445 20.9501 13.9077 21.1909 14.0968 21.4278C14.4748 21.9016 14.9681 22.3577 15.4724 22.8091C15.9766 23.2605 16.4918 23.7031 16.8852 24.0842C17.2786 24.4654 17.5274 24.8446 17.5292 24.8502C17.5311 24.8557 17.5514 25.3092 17.4546 25.8485C17.358 26.3878 17.197 27.0462 17.0515 27.7074C16.9061 28.3685 16.773 29.0283 16.7431 29.6337C16.7292 29.9364 16.7348 30.2285 16.8075 30.523C16.8797 30.8176 17.0343 31.1436 17.3397 31.3664C17.6449 31.5892 18.0027 31.6358 18.305 31.6145C18.6072 31.5932 18.8864 31.5118 19.1699 31.4051C19.7371 31.1918 20.3234 30.8633 20.9084 30.523C21.4933 30.1827 22.0711 29.83 22.555 29.5735C23.0389 29.317 23.4772 29.1962 23.483 29.1962C23.4885 29.1962 23.9253 29.3179 24.4082 29.5763C24.891 29.8348 25.4698 30.1904 26.0534 30.533C26.6369 30.8757 27.2226 31.2067 27.7889 31.4223C28.0721 31.5301 28.3501 31.6121 28.6524 31.6346C28.9546 31.6571 29.3116 31.6124 29.6177 31.3908C29.9238 31.1692 30.0795 30.8431 30.1527 30.5488C30.226 30.2546 30.2338 29.9637 30.2202 29.661C30.1924 29.0554 30.0645 28.3963 29.9218 27.7346C29.7789 27.0729 29.6202 26.4125 29.526 25.8728C29.4316 25.3331 29.4524 24.8801 29.4543 24.8745C29.456 24.869 29.7078 24.4896 30.1027 24.11C30.4975 23.7305 31.0137 23.2914 31.5198 22.8421C32.0258 22.3927 32.5212 21.9387 32.9011 21.4665C33.0912 21.2304 33.2553 20.9898 33.3701 20.7092C33.485 20.4285 33.5519 20.0735 33.4362 19.7137C33.3202 19.354 33.0593 19.1055 32.8022 18.9449C32.5452 18.7843 32.2724 18.6869 31.9803 18.6064C31.3961 18.4455 30.7285 18.3653 30.0554 18.2966C29.3823 18.2279 28.7057 18.1743 28.1635 18.0972C27.6214 18.0202 27.1957 17.8597 27.191 17.8563C27.1855 17.8529 26.9034 17.4973 26.6646 17.0043C26.4259 16.5112 26.1695 15.8833 25.8987 15.263C25.6281 14.6426 25.348 14.032 25.0166 13.5245C24.8509 13.2708 24.6741 13.0391 24.4428 12.8432C24.2116 12.6473 23.8955 12.4739 23.5177 12.4731ZM7.84455 20.6762C7.51395 20.6817 7.24575 20.8373 7.06142 20.9975C6.87684 21.1579 6.74573 21.3359 6.62538 21.5253C6.38474 21.9041 6.19319 22.341 6.00859 22.7789C5.82373 23.2169 5.64968 23.6551 5.49225 23.991C5.37096 24.2494 5.22385 24.4442 5.1939 24.4973C5.12757 24.5145 4.90099 24.598 4.62587 24.6407C4.25911 24.6977 3.78878 24.7412 3.31635 24.7956C2.84383 24.8501 2.37203 24.9118 1.94079 25.0366C1.7254 25.099 1.51694 25.1755 1.3111 25.3077C1.10515 25.4399 0.880854 25.6539 0.783264 25.9704C0.685563 26.2868 0.750782 26.5902 0.846263 26.8152C0.942021 27.0403 1.07026 27.2204 1.21346 27.3933C1.49965 27.739 1.85631 28.055 2.21608 28.3657C2.57588 28.6765 2.93904 28.9772 3.21011 29.2307C3.41356 29.4207 3.55375 29.6182 3.59879 29.6696C3.59602 29.738 3.60434 29.9801 3.55993 30.2548C3.50081 30.621 3.39866 31.0813 3.30457 31.5471C3.2102 32.013 3.12251 32.4814 3.10808 32.9298C3.09975 33.154 3.1077 33.3747 3.16968 33.6112C3.23185 33.8476 3.36621 34.1263 3.63727 34.3169C3.90817 34.5074 4.2183 34.5404 4.46199 34.5191C4.70569 34.4977 4.91595 34.4309 5.1247 34.3484C5.54218 34.1833 5.95413 33.9431 6.36108 33.6972C6.76807 33.4513 7.16498 33.198 7.48992 33.0187C7.73362 32.8843 7.96633 32.8105 8.02925 32.7835C8.09309 32.8085 8.32799 32.8745 8.57574 33.0015C8.90598 33.1708 9.3104 33.4121 9.72463 33.6456C10.1389 33.879 10.5559 34.1071 10.9783 34.2595C11.1892 34.3356 11.4038 34.3961 11.6481 34.4101C11.8923 34.4239 12.2006 34.3821 12.4657 34.1834C12.7308 33.9848 12.8553 33.7016 12.9103 33.4634C12.9653 33.2252 12.9675 33.0031 12.9533 32.7792C12.9253 32.3314 12.8232 31.8664 12.7152 31.4037C12.607 30.9409 12.4901 30.4856 12.4197 30.1214C12.3656 29.8413 12.3692 29.597 12.3623 29.5361C12.4059 29.4832 12.5408 29.2819 12.7381 29.0858C13.0012 28.8242 13.3561 28.5123 13.7063 28.1907C14.0565 27.8692 14.4018 27.5424 14.6773 27.1881C14.8153 27.011 14.9385 26.8264 15.0273 26.5986C15.1161 26.3708 15.1719 26.0657 15.0645 25.7523C14.9573 25.439 14.7263 25.2328 14.5166 25.1069C14.307 24.981 14.0972 24.9117 13.8798 24.8559C13.4448 24.7442 12.9709 24.6966 12.497 24.6565C12.0232 24.6164 11.5515 24.5876 11.1832 24.5418C10.9003 24.5066 10.6713 24.4266 10.6108 24.4141C10.5739 24.3564 10.4241 24.1661 10.2982 23.9178C10.1305 23.5869 9.9423 23.1538 9.74451 22.7216C9.54689 22.2894 9.34107 21.8593 9.08899 21.488C8.96298 21.3024 8.82671 21.1278 8.6372 20.9731C8.4479 20.8186 8.17521 20.6716 7.84455 20.6762ZM39.155 20.6762C38.8237 20.6712 38.5512 20.8184 38.3618 20.9731C38.1725 21.1278 38.0346 21.3024 37.9085 21.488C37.6565 21.8593 37.4523 22.2894 37.2545 22.7216C37.0568 23.1538 36.8698 23.5869 36.7022 23.9178C36.5765 24.166 36.4263 24.3564 36.3896 24.4141C36.3291 24.4266 36.1 24.5066 35.8172 24.5417C35.4489 24.5876 34.9773 24.6164 34.5034 24.6565C34.0294 24.6966 33.5556 24.7442 33.1207 24.8559C32.9034 24.9117 32.6921 24.981 32.4824 25.1069C32.2728 25.2328 32.0431 25.439 31.9359 25.7523C31.8288 26.0657 31.8832 26.3707 31.9717 26.5986C32.0605 26.8264 32.1838 27.011 32.3217 27.1881C32.597 27.5424 32.944 27.8692 33.2942 28.1907C33.6444 28.5123 33.9977 28.8242 34.2609 29.0857C34.4585 29.2819 34.5932 29.4832 34.6367 29.5361C34.6312 29.5977 34.635 29.842 34.5807 30.1213C34.5104 30.4856 34.3933 30.9409 34.2852 31.4037C34.1766 31.8664 34.0737 32.3314 34.0456 32.7792C34.0318 33.0031 34.0345 33.2251 34.0887 33.4634C34.1436 33.7016 34.2694 33.9848 34.5348 34.1834C34.7998 34.3821 35.1081 34.424 35.3523 34.4101C35.5966 34.3962 35.8081 34.3356 36.0193 34.2595C36.4417 34.1071 36.8615 33.879 37.2758 33.6455C37.69 33.4121 38.0945 33.1709 38.4247 33.0015C38.6723 32.8745 38.9074 32.8086 38.9712 32.7835C39.0342 32.8104 39.2668 32.8843 39.5105 33.0187C39.8355 33.198 40.2324 33.4513 40.6393 33.6972C41.0463 33.9431 41.4568 34.1833 41.8743 34.3484C42.0831 34.4309 42.2947 34.4977 42.5384 34.5191C42.7821 34.5404 43.0922 34.5074 43.3632 34.3168C43.6341 34.1263 43.7671 33.8476 43.8293 33.6111C43.8915 33.3747 43.8999 33.154 43.8924 32.9298C43.8785 32.4814 43.7899 32.0129 43.6958 31.5471C43.6015 31.0813 43.4993 30.6209 43.4405 30.2548C43.3961 29.9801 43.4058 29.7379 43.4019 29.6695C43.4469 29.6181 43.5857 29.4207 43.7892 29.2306C44.0601 28.9772 44.4248 28.6765 44.7846 28.3657C45.1444 28.055 45.4997 27.739 45.7858 27.3932C45.929 27.2203 46.0586 27.0402 46.1544 26.8152C46.2502 26.5901 46.3151 26.2868 46.2174 25.9704C46.1197 25.6539 45.8939 25.4399 45.6881 25.3077C45.4825 25.1755 45.2755 25.099 45.0599 25.0366C44.6286 24.9118 44.1568 24.8501 43.6843 24.7956C43.2119 24.7412 42.7416 24.6977 42.3748 24.6407C42.0997 24.598 41.8717 24.5145 41.8054 24.4973C41.7754 24.4442 41.6294 24.2494 41.5085 23.9909C41.3508 23.6551 41.1767 23.2169 40.9921 22.7789C40.8075 22.3409 40.616 21.9041 40.3753 21.5253C40.2548 21.3359 40.1225 21.1579 39.9378 20.9975C39.753 20.8371 39.4863 20.6812 39.155 20.6762Z" fill="url(#paint0_linear_1173_2101)"/>
  <defs>
    <linearGradient id="paint0_linear_1173_2101" x1="0.734863" y1="23.4989" x2="46.2659" y2="23.4989" gradientUnits="userSpaceOnUse">
      <stop stop-color="#FFE61C"/>
      <stop offset="1" stop-color="#FFA929"/>
    </linearGradient>
  </defs>
</svg>