<svg width="16" height="16" viewBox="0 0 16 16" fill="none" xmlns="http://www.w3.org/2000/svg">
<path fill-rule="evenodd" clip-rule="evenodd" d="M5.56105 2.11193C6.15276 1.43144 7.02598 1 8.00001 1C8.97398 1 9.84716 1.4314 10.4388 2.11183C11.3386 2.04897 12.2611 2.36135 12.95 3.05016C13.6388 3.73897 13.9512 4.6616 13.8883 5.56126C14.5686 6.15297 15 7.02609 15 7.99999C15 8.97409 14.5685 9.84735 13.888 10.4391C13.9507 11.3386 13.6383 12.261 12.9495 12.9498C12.2609 13.6384 11.3384 13.9508 10.4389 13.8881C9.84723 14.5685 8.97402 15 8.00001 15C7.02604 15 6.15287 14.5686 5.56116 13.8882C4.66148 13.9511 3.73883 13.6387 3.05002 12.9499C2.36119 12.261 2.04882 11.3385 2.11168 10.4387C1.43133 9.84702 1 8.97391 1 7.99999C1 7.02604 1.43138 6.15288 2.11179 5.56117C2.04899 4.66158 2.36138 3.73903 3.05013 3.05028C3.73888 2.36152 4.66144 2.04914 5.56105 2.11193ZM10.592 6.69759C10.7649 6.4556 10.7088 6.1193 10.4668 5.94645C10.2248 5.7736 9.88854 5.82965 9.71568 6.07164L7.39283 9.32364L6.2269 8.15771C6.01662 7.94743 5.67569 7.94743 5.4654 8.15771C5.25513 8.368 5.25513 8.70893 5.4654 8.91921L7.0808 10.5346C7.19272 10.6466 7.34822 10.7035 7.50596 10.6905C7.6637 10.6774 7.8077 10.5956 7.89971 10.4668L10.592 6.69759Z" fill="url(#paint0_linear_1166_125)"/>
<defs>
<linearGradient id="paint0_linear_1166_125" x1="1" y1="7.99996" x2="15" y2="7.99996" gradientUnits="userSpaceOnUse">
<stop stop-color="#7AFFD7"/>
<stop offset="1" stop-color="#00FFB2"/>
</linearGradient>
</defs>
</svg>
